<svg xmlns="http://www.w3.org/2000/svg" viewBox="0 0 512 512">
  <defs>
    <linearGradient id="bg4" x1="0%" y1="0%" x2="100%" y2="100%">
      <stop offset="0%" style="stop-color:#0ea5e9"/>
      <stop offset="100%" style="stop-color:#2563eb"/>
    </linearGradient>
  </defs>
  
  <!-- Background -->
  <rect width="512" height="512" rx="115" fill="url(#bg4)"/>
  
  <!-- Hexagon vault shape -->
  <polygon points="256,80 380,150 380,290 256,360 132,290 132,150" 
           fill="white" stroke="none"/>
  
  <!-- Inner hexagon -->
  <polygon points="256,110 350,165 350,275 256,330 162,275 162,165" 
           fill="none" stroke="#bfdbfe" stroke-width="6"/>
  
  <!-- Lock body -->
  <rect x="216" y="200" width="80" height="70" rx="12" fill="#2563eb"/>
  
  <!-- Lock shackle -->
  <path d="M232 200 v-30 a24 24 0 0 1 48 0 v30" 
        fill="none" stroke="#2563eb" stroke-width="14" stroke-linecap="round"/>
  
  <!-- Keyhole -->
  <circle cx="256" cy="230" r="12" fill="white"/>
  <rect x="251" y="230" width="10" height="25" rx="3" fill="white"/>
  
  <!-- Note lines below -->
  <rect x="180" y="390" width="152" height="10" rx="5" fill="white" opacity="0.9"/>
  <rect x="200" y="415" width="112" height="10" rx="5" fill="white" opacity="0.7"/>
  <rect x="220" y="440" width="72" height="10" rx="5" fill="white" opacity="0.5"/>
</svg>
